#!OML:ASF F:\VICON\USERDATA\INSTALL\rory3\rory3.ASF
:FULLY-SPECIFIED
:DEGREES
273
root 2.88148 17.7555 11.7006 39.6201 82.258 40.9199
lowerback 10.8137 -0.0355721 -7.00172
upperback 0.843995 -0.85239 0.00406991
thorax -5.08449 -0.248939 4.07956
lowerneck -21.4392 -5.23975 -11.7457
upperneck 29.5995 -5.38493 7.56101
head 14.315 -2.47302 4.11843
rclavicle 6.63444e-015 3.97569e-015
rhumerus -37.8858 -15.2893 -79.6211
rradius 29.407
rwrist 4.19154
rhand -16.1379 8.25947
rfingers 7.12502
rthumb 10.0671 -21.4797
lclavicle 6.63444e-015 3.97569e-015
lhumerus -22.5453 -3.22448 86.3786
lradius 36.855
lwrist -3.86052
lhand -17.7849 26.8941
lfingers 7.12502
lthumb 8.47791 56.7039
rfemur -25.0203 -0.60184 12.2548
rtibia 19.1493
rfoot -7.69284 -0.453186
rtoes -21.9776
lfemur 13.5911 -1.33408 -31.7544
ltibia 7.82235
lfoot -7.10403 -8.76319
ltoes 9.47216
274
root 3.01089 17.7501 11.7426 39.7811 82.1464 41.1641
lowerback 10.8251 0.00851333 -7.10091
upperback 0.88523 -0.807116 -0.0676036
thorax -5.05245 -0.22667 4.0529
lowerneck -21.4312 -5.17267 -11.6444
upperneck 29.5237 -5.32776 7.569
head 14.2683 -2.43545 4.11236
rclavicle -1.65985e-014 -1.39149e-014
rhumerus -37.9291 -15.5205 -79.5523
rradius 29.0352
rwrist 4.53868
rhand -15.9523 8.42225
rfingers 7.12502
rthumb 10.2462 -21.3082
lclavicle -1.65985e-014 -1.39149e-014
lhumerus -22.6321 -3.23177 86.2159
lradius 36.8435
lwrist -3.62152
lhand -17.7737 27.0823
lfingers 7.12502
lthumb 8.4887 56.8917
rfemur -24.9758 -1.01984 12.5937
rtibia 19.6863
rfoot -6.96012 0.551339
rtoes -21.3516
lfemur 14.2579 -1.36 -31.7946
ltibia 7.53088
lfoot -6.79408 -8.83903
ltoes 7.44382
275
root 3.14279 17.7449 11.7817 40.2396 82.1167 41.7057
lowerback 10.9089 -0.00730544 -7.12683
upperback 0.851562 -0.842588 -0.127644
thorax -5.13126 -0.24023 4.01083
lowerneck -21.3587 -5.06708 -11.653
upperneck 29.5199 -5.19336 7.62063
head 14.2354 -2.3719 4.16159
rclavicle 9.19379e-015 9.14409e-015
rhumerus -38.0986 -15.6283 -79.4441
rradius 28.7404
rwrist 4.88875
rhand -15.789 8.36415
rfingers 7.12502
rthumb 10.4037 -21.3585
lclavicle 9.19379e-015 9.14409e-015
lhumerus -22.8052 -2.56867 86.0436
lradius 36.7052
lwrist -3.83347
lhand -17.6745 26.8757
lfingers 7.12502
lthumb 8.58444 56.6812
rfemur -24.8881 -1.5394 12.9761
rtibia 20.3249
rfoot -6.45184 1.56991
rtoes -22.6817
lfemur 14.9407 -1.46865 -31.8482
ltibia 7.21761
lfoot -6.59932 -8.80633
ltoes 3.91241
276
root 3.27887 17.7455 11.8194 40.5654 82.166 42.1481
lowerback 10.9592 0.0303966 -7.10416
upperback 0.86057 -0.794074 -0.147886
thorax -5.15629 -0.216103 3.97011
lowerneck -21.3084 -5.05411 -11.6631
upperneck 29.4979 -5.16522 7.59331
head 14.2109 -2.3649 4.1566
rclavicle 1.69464e-014 0
rhumerus -38.2383 -15.9784 -79.1727
rradius 28.4021
rwrist 5.36569
rhand -15.8213 8.32219
rfingers 7.12502
rthumb 10.3725 -21.402
lclavicle 1.69464e-014 0
lhumerus -22.9673 -1.98321 85.9178
lradius 36.5099
lwrist -4.35276
lhand -17.1413 26.4434
lfingers 7.12502
lthumb 9.09901 56.2271
rfemur -24.6378 -1.73903 13.3144
rtibia 20.9775
rfoot -6.1116 2.31883
rtoes -24.1062
lfemur 15.7424 -1.62613 -31.8226
ltibia 6.82372
lfoot -6.12843 -8.84033
ltoes 2.56495
277
root 3.41649 17.7503 11.8594 41.2556 82.1817 42.9977
lowerback 11.0279 0.110429 -7.1584
upperback 0.897076 -0.698958 -0.182991
thorax -5.16733 -0.16826 3.95001
lowerneck -21.2738 -5.11848 -11.7383
upperneck 29.495 -5.24688 7.63154
head 14.217 -2.40337 4.17009
rclavicle -3.67752e-015 -6.55989e-015
rhumerus -38.3763 -16.274 -78.9264
rradius 28.0872
rwrist 5.4954
rhand -15.6849 8.26912
rfingers 7.12502
rthumb 10.5042 -21.4484
lclavicle -3.67752e-015 -6.55989e-015
lhumerus -23.1698 -1.99433 85.8962
lradius 36.3862
lwrist -4.37508
lhand -17.0429 26.4134
lfingers 7.12502
lthumb 9.19399 56.193
rfemur -24.2767 -1.34151 13.3556
rtibia 21.6022
rfoot -5.5637 2.60816
rtoes -22.0445
lfemur 16.7253 -1.79397 -31.8379
ltibia 6.21603
lfoot -5.27302 -8.9878
ltoes 3.64607
278
root 3.55515 17.7649 11.9007 42.906 82.3296 44.7027
lowerback 11.0789 0.0533096 -7.19271
upperback 0.855497 -0.78626 -0.198371
thorax -5.22926 -0.20735 3.96726
lowerneck -21.2681 -5.08516 -11.7706
upperneck 29.5472 -5.17032 7.58687
head 14.2289 -2.38022 4.17379
rclavicle -2.40281e-014 1.33186e-014
rhumerus -38.507 -16.443 -78.7341
rradius 27.7127
rwrist 5.70882
rhand -15.4083 8.28807
rfingers 7.12502
rthumb 10.771 -21.4158
lclavicle -2.40281e-014 1.33186e-014
lhumerus -23.4964 -1.80524 85.8522
lradius 36.2733
lwrist -4.07364
lhand -17.463 26.4438
lfingers 7.12502
lthumb 8.7886 56.2408
rfemur -24.0129 -0.877334 13.322
rtibia 22.1089
rfoot -4.48271 2.875
rtoes -17.8746
lfemur 17.6229 -2.14885 -31.8901
ltibia 5.52002
lfoot -4.4704 -9.02295
ltoes 2.41782
